# xmcd
#
# Track frame offsets:
#	150
#	17714
#	37947
#	57064
#	73734
#	91199
#	132096
#	156357
#
# Disc length: 2272 seconds
#
# Revision: 0
# Processed by: cddbd v1.5.2PL0 Copyright (c) Steve Scherf et al.
# Submitted via: EZCDAudioConverter 7.1.5.1
#
DISCID=5e08de08
DTITLE=Flat Blues Ltd. - Flat Blues Ltd. (EP)
DYEAR=2008
DGENRE=Blues
TTITLE0=Talk To Me
TTITLE1=My Babe
TTITLE2=I'm Ready
TTITLE3=She's Tuff
TTITLE4=It Ain't Right
TTITLE5=Stormy Monday
TTITLE6=Walking
TTITLE7=V8 Ford
EXTD=
EXTT0=
EXTT1=
EXTT2=
EXTT3=
EXTT4=
EXTT5=
EXTT6=
EXTT7=
PLAYORDER=
